<?xml version="1.0" encoding="UTF-8" standalone="no"?>
<svg
   xmlns:dc="http://purl.org/dc/elements/1.1/"
   xmlns:cc="http://creativecommons.org/ns#"
   xmlns:rdf="http://www.w3.org/1999/02/22-rdf-syntax-ns#"
   xmlns:svg="http://www.w3.org/2000/svg"
   xmlns="http://www.w3.org/2000/svg"
   viewBox="0 0 218.66071 309.46411"
   height="309.46411"
   width="218.66071"
   xml:space="preserve"
   id="svg2"
   version="1.1"><metadata
     id="metadata8"><rdf:RDF><cc:Work
         rdf:about=""><dc:format>image/svg+xml</dc:format><dc:type
           rdf:resource="http://purl.org/dc/dcmitype/StillImage" /><dc:title></dc:title></cc:Work></rdf:RDF></metadata><defs
     id="defs6"><clipPath
       id="clipPath28"
       clipPathUnits="userSpaceOnUse"><path
         id="path26"
         d="m 1173.2,1704.61 370.86,-246.52 c 4.61,-3.05 10.82,-1.8 13.87,2.77 3.05,4.61 1.8,10.82 -2.81,13.87 l -370.82,246.52 c -4.61,3.09 -10.82,1.84 -13.87,-2.77 -3.09,-4.61 -1.8,-10.82 2.77,-13.87 z" /></clipPath><clipPath
       id="clipPath34"
       clipPathUnits="userSpaceOnUse"><path
         id="path32"
         d="m 1160,1450 h 400 v 280 h -400 z" /></clipPath><clipPath
       id="clipPath40"
       clipPathUnits="userSpaceOnUse"><path
         id="path38"
         d="m 1170,1480.2 h 350 v 239.801 h -350 z" /></clipPath><clipPath
       id="clipPath46"
       clipPathUnits="userSpaceOnUse"><path
         id="path44"
         d="m 1170,1480 h 350 v 240 h -350 z" /></clipPath><clipPath
       id="clipPath84"
       clipPathUnits="userSpaceOnUse"><path
         id="path82"
         d="m 1145.31,640.551 355.28,268.551 c 4.37,3.32 5.27,9.57 1.91,13.988 -3.32,4.41 -9.61,5.269 -13.98,1.949 L 1133.24,656.52 c -4.37,-3.321 -5.27,-9.61 -1.91,-14.02 3.32,-4.379 9.57,-5.27 13.98,-1.949 z" /></clipPath><clipPath
       id="clipPath90"
       clipPathUnits="userSpaceOnUse"><path
         id="path88"
         d="m 1120,630 h 390 v 300 h -390 z" /></clipPath><clipPath
       id="clipPath96"
       clipPathUnits="userSpaceOnUse"><path
         id="path94"
         d="m 1130,640 h 336.289 V 900 H 1130 Z" /></clipPath><clipPath
       id="clipPath102"
       clipPathUnits="userSpaceOnUse"><path
         id="path100"
         d="m 1130,640 h 340 v 260 h -340 z" /></clipPath><clipPath
       id="clipPath370"
       clipPathUnits="userSpaceOnUse"><path
         id="path368"
         d="m 1370,1600 v 170 h 249 v -170 z" /></clipPath><clipPath
       id="clipPath388"
       clipPathUnits="userSpaceOnUse"><path
         id="path386"
         d="m 551,1942 v 317 h 449 v -317 z" /></clipPath></defs><g
     transform="matrix(1.3333333,0,0,-1.3333333,-243.40155,302.78133)"
     id="g10"><g
       transform="scale(0.1)"
       id="g12"><path
         id="path142"
         style="fill:none;stroke:#000000;stroke-width:7;stroke-linecap:round;stroke-linejoin:round;stroke-miterlimit:10;stroke-dasharray:none;stroke-opacity:1"
         d="m 3116.21,610.199 -898.79,-5.238" /><path
         id="path144"
         style="fill:none;stroke:#000000;stroke-width:7;stroke-linecap:round;stroke-linejoin:round;stroke-miterlimit:10;stroke-dasharray:none;stroke-opacity:1"
         d="M 3060.04,601.988 3011.21,483.199" /><path
         id="path146"
         style="fill:none;stroke:#000000;stroke-width:7;stroke-linecap:round;stroke-linejoin:round;stroke-miterlimit:10;stroke-dasharray:none;stroke-opacity:1"
         d="M 2979.14,601.988 2930.35,483.199" /><path
         id="path148"
         style="fill:none;stroke:#000000;stroke-width:7;stroke-linecap:round;stroke-linejoin:round;stroke-miterlimit:10;stroke-dasharray:none;stroke-opacity:1"
         d="M 2898.28,601.988 2849.45,483.199" /><path
         id="path150"
         style="fill:none;stroke:#000000;stroke-width:7;stroke-linecap:round;stroke-linejoin:round;stroke-miterlimit:10;stroke-dasharray:none;stroke-opacity:1"
         d="M 2817.38,601.988 2768.55,483.199" /><path
         id="path152"
         style="fill:none;stroke:#000000;stroke-width:7;stroke-linecap:round;stroke-linejoin:round;stroke-miterlimit:10;stroke-dasharray:none;stroke-opacity:1"
         d="M 2736.48,601.988 2687.66,483.199" /><path
         id="path154"
         style="fill:none;stroke:#000000;stroke-width:7;stroke-linecap:round;stroke-linejoin:round;stroke-miterlimit:10;stroke-dasharray:none;stroke-opacity:1"
         d="M 2655.59,601.988 2606.8,483.199" /><path
         id="path156"
         style="fill:none;stroke:#000000;stroke-width:7;stroke-linecap:round;stroke-linejoin:round;stroke-miterlimit:10;stroke-dasharray:none;stroke-opacity:1"
         d="M 2574.73,601.988 2525.9,483.199" /><path
         id="path158"
         style="fill:none;stroke:#000000;stroke-width:7;stroke-linecap:round;stroke-linejoin:round;stroke-miterlimit:10;stroke-dasharray:none;stroke-opacity:1"
         d="M 2493.83,601.988 2445,483.199" /><path
         id="path160"
         style="fill:none;stroke:#000000;stroke-width:7;stroke-linecap:round;stroke-linejoin:round;stroke-miterlimit:10;stroke-dasharray:none;stroke-opacity:1"
         d="M 2412.93,601.988 2364.1,483.199" /><path
         id="path162"
         style="fill:none;stroke:#000000;stroke-width:7;stroke-linecap:round;stroke-linejoin:round;stroke-miterlimit:10;stroke-dasharray:none;stroke-opacity:1"
         d="M 2332.03,601.988 2283.2,483.199" /><path
         id="path164"
         style="fill:none;stroke:#000000;stroke-width:7;stroke-linecap:round;stroke-linejoin:round;stroke-miterlimit:10;stroke-dasharray:none;stroke-opacity:1"
         d="m 2217.42,1688.01 898.79,5.23" /><path
         id="path166"
         style="fill:none;stroke:#000000;stroke-width:7;stroke-linecap:round;stroke-linejoin:round;stroke-miterlimit:10;stroke-dasharray:none;stroke-opacity:1"
         d="M 2273.55,1696.21 2322.38,1815" /><path
         id="path168"
         style="fill:none;stroke:#000000;stroke-width:7;stroke-linecap:round;stroke-linejoin:round;stroke-miterlimit:10;stroke-dasharray:none;stroke-opacity:1"
         d="M 2354.45,1696.21 2403.28,1815" /><path
         id="path170"
         style="fill:none;stroke:#000000;stroke-width:7;stroke-linecap:round;stroke-linejoin:round;stroke-miterlimit:10;stroke-dasharray:none;stroke-opacity:1"
         d="M 2435.35,1696.21 2484.18,1815" /><path
         id="path172"
         style="fill:none;stroke:#000000;stroke-width:7;stroke-linecap:round;stroke-linejoin:round;stroke-miterlimit:10;stroke-dasharray:none;stroke-opacity:1"
         d="M 2516.25,1696.21 2565.08,1815" /><path
         id="path174"
         style="fill:none;stroke:#000000;stroke-width:7;stroke-linecap:round;stroke-linejoin:round;stroke-miterlimit:10;stroke-dasharray:none;stroke-opacity:1"
         d="M 2597.15,1696.21 2645.94,1815" /><path
         id="path176"
         style="fill:none;stroke:#000000;stroke-width:7;stroke-linecap:round;stroke-linejoin:round;stroke-miterlimit:10;stroke-dasharray:none;stroke-opacity:1"
         d="M 2678.05,1696.21 2726.84,1815" /><path
         id="path178"
         style="fill:none;stroke:#000000;stroke-width:7;stroke-linecap:round;stroke-linejoin:round;stroke-miterlimit:10;stroke-dasharray:none;stroke-opacity:1"
         d="M 2758.91,1696.21 2807.73,1815" /><path
         id="path180"
         style="fill:none;stroke:#000000;stroke-width:7;stroke-linecap:round;stroke-linejoin:round;stroke-miterlimit:10;stroke-dasharray:none;stroke-opacity:1"
         d="M 2839.8,1696.21 2888.63,1815" /><path
         id="path182"
         style="fill:none;stroke:#000000;stroke-width:7;stroke-linecap:round;stroke-linejoin:round;stroke-miterlimit:10;stroke-dasharray:none;stroke-opacity:1"
         d="M 2920.7,1696.21 2969.49,1815" /><path
         id="path184"
         style="fill:none;stroke:#000000;stroke-width:7;stroke-linecap:round;stroke-linejoin:round;stroke-miterlimit:10;stroke-dasharray:none;stroke-opacity:1"
         d="M 3001.6,1696.21 3050.39,1815" /><path
         id="path186"
         style="fill:none;stroke:#000000;stroke-width:20;stroke-linecap:round;stroke-linejoin:round;stroke-miterlimit:10;stroke-dasharray:none;stroke-opacity:1"
         d="m 2649.34,1268.63 59.45,19.77 -80.94,37.38 79.3,36.17 -79.57,39.38 77.97,38.2 -81.45,39.3 83.6,36.48 -78.48,41.49 49.61,48.79" /><path
         id="path188"
         style="fill:none;stroke:#000000;stroke-width:20;stroke-linecap:round;stroke-linejoin:round;stroke-miterlimit:10;stroke-dasharray:none;stroke-opacity:1"
         d="m 2658.59,702.27 48.09,35.23 -80.9,41.051 79.26,39.648 -79.57,43.25 77.97,41.91 -81.45,43.09 83.6,40.071 -78.48,45.47 76.76,41.88 -35.82,25.51 v 61.87" /><path
         id="path190"
         style="fill:#a400ff;fill-opacity:1;fill-rule:evenodd;stroke:none"
         d="m 2667.19,642.27 c 11.64,0 21.09,-9.77 21.09,-21.758 0,-12.032 -9.45,-21.801 -21.09,-21.801 -11.64,0 -21.1,9.769 -21.1,21.801 0,11.988 9.46,21.758 21.1,21.758" /><path
         id="path192"
         style="fill:none;stroke:#000000;stroke-width:8;stroke-linecap:round;stroke-linejoin:round;stroke-miterlimit:10;stroke-dasharray:none;stroke-opacity:1"
         d="m 2667.19,642.27 c 11.64,0 21.09,-9.77 21.09,-21.758 0,-12.032 -9.45,-21.801 -21.09,-21.801 -11.64,0 -21.1,9.769 -21.1,21.801 0,11.988 9.46,21.758 21.1,21.758 z" /><path
         id="path194"
         style="fill:#a400ff;fill-opacity:1;fill-rule:evenodd;stroke:none"
         d="m 2667.19,1208.12 c 11.64,0 21.09,-9.72 21.09,-21.75 0,-12.03 -9.45,-21.76 -21.09,-21.76 -11.64,0 -21.1,9.73 -21.1,21.76 0,12.03 9.46,21.75 21.1,21.75" /><path
         id="path196"
         style="fill:none;stroke:#000000;stroke-width:8;stroke-linecap:round;stroke-linejoin:round;stroke-miterlimit:10;stroke-dasharray:none;stroke-opacity:1"
         d="m 2667.19,1208.12 c 11.64,0 21.09,-9.72 21.09,-21.75 0,-12.03 -9.45,-21.76 -21.09,-21.76 -11.64,0 -21.1,9.73 -21.1,21.76 0,12.03 9.46,21.75 21.1,21.75 z" /><path
         id="path198"
         style="fill:#a400ff;fill-opacity:1;fill-rule:evenodd;stroke:none"
         d="m 2667.19,1708.59 c 11.64,0 21.09,-9.76 21.09,-21.75 0,-12.04 -9.45,-21.8 -21.09,-21.8 -11.64,0 -21.1,9.76 -21.1,21.8 0,11.99 9.46,21.75 21.1,21.75" /><path
         id="path200"
         style="fill:none;stroke:#000000;stroke-width:8;stroke-linecap:round;stroke-linejoin:round;stroke-miterlimit:10;stroke-dasharray:none;stroke-opacity:1"
         d="m 2667.19,1708.59 c 11.64,0 21.09,-9.76 21.09,-21.75 0,-12.04 -9.45,-21.8 -21.09,-21.8 -11.64,0 -21.1,9.76 -21.1,21.8 0,11.99 9.46,21.75 21.1,21.75 z" /><path
         id="path202"
         style="fill:none;stroke:#000000;stroke-width:20;stroke-linecap:round;stroke-linejoin:miter;stroke-miterlimit:1.41400003;stroke-dasharray:none;stroke-opacity:1"
         d="m 2667.23,1695.98 c 0.43,-10.12 8.98,-17.93 19.06,-17.46 10.08,0.43 17.89,8.98 17.42,19.06 -0.86,20.15 -17.97,35.82 -38.12,34.88 -20.16,-0.86 -35.79,-17.97 -34.93,-38.12 1.37,-30.24 27,-53.72 57.23,-52.39 30.23,1.37 53.71,27 52.38,57.23 -1.79,40.35 -35.97,71.6 -76.29,69.84 -40.35,-1.79 -71.64,-35.97 -69.84,-76.29 2.23,-50.5 34.3,-89.37 84.69,-87.14" /><path
         id="path204"
         style="fill:none;stroke:#000000;stroke-width:20;stroke-linecap:butt;stroke-linejoin:miter;stroke-miterlimit:1.41400003;stroke-dasharray:none;stroke-opacity:1"
         d="m 2667.62,1177.23 c 0,10.07 -8.21,18.28 -18.28,18.28 -10.08,0 -18.29,-8.21 -18.29,-18.28 0,-20.2 16.37,-36.57 36.57,-36.57 20.15,0 36.56,16.37 36.56,36.57 0,30.27 -24.57,54.84 -54.84,54.84 -30.28,0 -54.85,-24.57 -54.85,-54.84 0,-40.35 32.74,-73.13 73.13,-73.13 40.35,0 73.12,32.78 73.12,73.13 0,50.54 -40.94,91.4 -91.4,91.4" /><path
         id="path206"
         style="fill:none;stroke:#000000;stroke-width:20;stroke-linecap:round;stroke-linejoin:miter;stroke-miterlimit:1.41400003;stroke-dasharray:none;stroke-opacity:1"
         d="m 2666.25,611.41 c 1.02,10.039 -6.25,19.02 -16.29,20.07 -10.04,1.059 -19.02,-6.25 -20.08,-16.281 -2.11,-20.078 12.5,-38.09 32.58,-40.16 20.08,-2.109 38.05,12.5 40.16,32.582 3.12,30.109 -18.79,57.109 -48.91,60.231 -30.08,3.128 -57.07,-18.793 -60.19,-48.872 -4.18,-40.152 25,-76.128 65.15,-80.308 40.16,-4.184 76.13,25 80.31,65.156 5.24,50.274 -30.19,93.203 -80.39,98.442" /><path
         id="path248"
         style="fill:#000000;fill-opacity:1;fill-rule:nonzero;stroke:none"
         d="m 2281.051,-38.441004 18.719,26.722 -17.93,25.16 h 16.75 l 9.18,-14.26099975 9.691,14.26099975 h 16.09 l -17.571,-24.57 19.18,-27.312 h -16.84 l -10.55,16.101 -10.622,-16.101 h -16.097" /><path
         id="path250"
         style="fill:#000000;fill-opacity:1;fill-rule:nonzero;stroke:none"
         d="m 1847.5,457.5 h 14.5703 l 12.418,-36.801 12.1133,36.801 h 14.2184 l -18.32,-49.879 -3.2812,-9.07 c -1.2071,-3 -2.3399,-5.313 -3.4375,-6.91 -1.0899,-1.602 -2.3399,-2.891 -3.75,-3.911 -1.4415,-0.968 -3.1602,-1.75 -5.2305,-2.3 -2.0703,-0.551 -4.4219,-0.821 -7.0313,-0.821 -2.6211,0 -5.1992,0.27 -7.7382,0.821 l -1.211,10.742 c 2.1094,-0.434 4.0586,-0.621 5.7813,-0.621 3.1992,0 5.5468,0.929 7.0703,2.808 1.5586,1.871 2.7383,4.262 3.5586,7.153 L 1847.5,457.5" /><path
         id="path252"
         style="fill:#000000;fill-opacity:1;fill-rule:nonzero;stroke:none"
         d="m 1932.969,59.058996 v 10.711 l 19.453,22.3 c 3.199,3.629 5.547,6.25 7.066,7.77 -1.597,-0.11 -3.668,-0.149 -6.289,-0.192 l -18.32,-0.117 V 110.941 h 42.891 v -9.73 l -19.84,-22.852004 -6.989,-7.578 c 3.829,0.239 6.168,0.348 7.11,0.348 h 21.211 v -12.07 h -46.293" /><path
         id="path254"
         style="fill:#000000;fill-opacity:1;fill-rule:nonzero;stroke:none"
         d="m 2071.52,1235.51 h 13.7109 v 71.5586 H 2071.52 Z" /><path
         id="path256"
         style="fill:#000000;fill-opacity:1;fill-rule:nonzero;stroke:none"
         d="m 2099.3,1307.07 h 13.7109 v -12.6914 H 2099.3 Z m 0,-71.56 v 51.83 h 13.71 v -51.83 h -13.71" /><path
         id="path258"
         style="fill:#000000;fill-opacity:1;fill-rule:nonzero;stroke:none"
         d="m 2174.26,1235.51 h -13.75 v 26.44 c 0,5.63 -0.28,9.22 -0.86,10.86 -0.59,1.64 -1.56,2.93 -2.85,3.83 -1.33,0.94 -2.93,1.41 -4.77,1.41 -2.38,0 -4.49,-0.67 -6.41,-2 -1.87,-1.28 -3.16,-3 -3.86,-5.15 -0.71,-2.15 -1.06,-6.13 -1.06,-11.92 v -23.47 h -13.71 v 51.83 h 12.74 v -7.61 c 4.53,5.86 10.19,8.79 17.07,8.79 3.04,0 5.82,-0.55 8.32,-1.64 2.5,-1.1 4.37,-2.47 5.66,-4.18 1.33,-1.68 2.19,-3.6 2.7,-5.75 0.5,-2.15 0.78,-5.23 0.78,-9.22 v -32.22" /><path
         id="path260"
         style="fill:#000000;fill-opacity:1;fill-rule:nonzero;stroke:none"
         d="m 2218.2,1251.99 13.68,-2.26 c -1.76,-5.04 -4.54,-8.83 -8.36,-11.49 -3.79,-2.62 -8.52,-3.9 -14.22,-3.9 -9.03,0 -15.71,2.93 -20,8.82 -3.44,4.73 -5.16,10.67 -5.16,17.89 0,8.6 2.27,15.32 6.76,20.16 4.49,4.88 10.15,7.31 17.03,7.31 7.73,0 13.83,-2.54 18.24,-7.62 4.49,-5.12 6.6,-12.93 6.41,-23.44 h -34.38 c 0.12,-4.06 1.21,-7.23 3.32,-9.49 2.11,-2.27 4.77,-3.4 7.93,-3.4 2.15,0 3.95,0.59 5.43,1.76 1.45,1.17 2.54,3.08 3.32,5.66 z m 0.78,13.87 c -0.11,3.98 -1.13,6.99 -3.08,9.06 -1.95,2.07 -4.34,3.13 -7.15,3.13 -2.97,0 -5.47,-1.1 -7.42,-3.28 -1.95,-2.19 -2.89,-5.16 -2.85,-8.91 h 20.5" /><path
         id="path262"
         style="fill:#000000;fill-opacity:1;fill-rule:nonzero;stroke:none"
         d="m 2254.02,1271.52 -12.46,2.27 c 1.41,5 3.83,8.71 7.23,11.13 3.44,2.38 8.51,3.6 15.23,3.6 6.14,0 10.71,-0.71 13.68,-2.15 3,-1.49 5.11,-3.32 6.32,-5.55 1.21,-2.23 1.84,-6.33 1.84,-12.27 l -0.16,-16.01 c 0,-4.57 0.24,-7.93 0.67,-10.08 0.43,-2.19 1.29,-4.49 2.46,-6.95 h -13.56 c -0.35,0.9 -0.82,2.26 -1.32,4.02 -0.24,0.82 -0.4,1.37 -0.47,1.64 -2.35,-2.3 -4.89,-3.98 -7.54,-5.12 -2.66,-1.17 -5.51,-1.71 -8.56,-1.71 -5.31,0 -9.53,1.44 -12.61,4.33 -3.05,2.89 -4.61,6.56 -4.61,10.98 0,2.93 0.7,5.55 2.11,7.85 1.4,2.3 3.35,4.06 5.85,5.27 2.54,1.21 6.18,2.31 10.94,3.21 6.41,1.21 10.86,2.3 13.32,3.36 v 1.36 c 0,2.66 -0.62,4.53 -1.95,5.63 -1.29,1.13 -3.75,1.72 -7.38,1.72 -2.43,0 -4.34,-0.51 -5.71,-1.45 -1.36,-0.98 -2.46,-2.65 -3.32,-5.08 z m 18.36,-11.13 c -1.76,-0.59 -4.53,-1.29 -8.36,-2.11 -3.79,-0.78 -6.29,-1.6 -7.46,-2.38 -1.79,-1.25 -2.69,-2.85 -2.69,-4.85 0,-1.91 0.74,-3.55 2.15,-4.96 1.44,-1.4 3.28,-2.11 5.46,-2.11 2.5,0 4.85,0.82 7.11,2.47 1.64,1.21 2.74,2.73 3.25,4.53 0.39,1.17 0.54,3.4 0.54,6.68 v 2.73" /><path
         id="path264"
         style="fill:#000000;fill-opacity:1;fill-rule:nonzero;stroke:none"
         d="m 2312.54,1235.51 h -13.75 v 51.83 h 12.77 v -7.38 c 2.15,3.52 4.14,5.78 5.86,6.92 1.76,1.09 3.71,1.64 5.94,1.64 3.12,0 6.13,-0.86 9.02,-2.58 l -4.22,-11.96 c -2.3,1.49 -4.49,2.23 -6.44,2.23 -1.95,0 -3.56,-0.51 -4.88,-1.56 -1.33,-1.06 -2.39,-3.01 -3.17,-5.74 -0.78,-2.78 -1.13,-8.56 -1.13,-17.39 v -16.01" /><path
         id="path266"
         style="fill:#000000;fill-opacity:1;fill-rule:nonzero;stroke:none"
         d="m 2019.49,1147.03 13.75,2.07 c 0.59,-2.65 1.8,-4.69 3.56,-6.05 1.79,-1.41 4.29,-2.07 7.54,-2.07 3.55,0 6.21,0.62 8,1.95 1.21,0.9 1.8,2.11 1.8,3.63 0,1.06 -0.31,1.92 -0.98,2.62 -0.66,0.62 -2.18,1.25 -4.57,1.8 -11.09,2.46 -18.08,4.68 -21.05,6.68 -4.1,2.81 -6.13,6.72 -6.13,11.68 0,4.49 1.75,8.28 5.31,11.32 3.55,3.05 9.02,4.57 16.48,4.57 7.11,0 12.39,-1.13 15.82,-3.43 3.44,-2.31 5.82,-5.75 7.15,-10.28 l -12.97,-2.38 c -0.54,2.03 -1.6,3.56 -3.12,4.65 -1.56,1.05 -3.75,1.6 -6.6,1.6 -3.64,0 -6.21,-0.51 -7.78,-1.52 -1.05,-0.71 -1.56,-1.64 -1.56,-2.78 0,-0.97 0.47,-1.79 1.37,-2.5 1.21,-0.89 5.51,-2.18 12.81,-3.82 7.3,-1.68 12.38,-3.72 15.31,-6.14 2.85,-2.42 4.3,-5.82 4.3,-10.19 0,-4.77 -1.99,-8.83 -5.98,-12.27 -3.94,-3.4 -9.84,-5.12 -17.61,-5.12 -7.07,0 -12.66,1.45 -16.76,4.3 -4.14,2.85 -6.84,6.76 -8.09,11.68" /><path
         id="path268"
         style="fill:#000000;fill-opacity:1;fill-rule:nonzero;stroke:none"
         d="m 2079.53,1184.06 h 12.81 v -7.61 c 1.64,2.61 3.91,4.72 6.72,6.36 2.85,1.64 5.98,2.42 9.42,2.42 6.05,0 11.17,-2.34 15.35,-7.07 4.22,-4.72 6.29,-11.28 6.29,-19.72 0,-8.64 -2.11,-15.39 -6.33,-20.2 -4.26,-4.76 -9.38,-7.19 -15.39,-7.19 -2.85,0 -5.47,0.55 -7.78,1.72 -2.34,1.14 -4.8,3.09 -7.38,5.86 v -26.13 h -13.71 z m 13.59,-25.04 c 0,-5.82 1.14,-10.11 3.44,-12.89 2.35,-2.81 5.16,-4.18 8.48,-4.18 3.16,0 5.82,1.25 7.97,3.83 2.11,2.54 3.16,6.76 3.16,12.58 0,5.43 -1.09,9.45 -3.28,12.11 -2.19,2.62 -4.88,3.94 -8.12,3.94 -3.32,0 -6.14,-1.29 -8.32,-3.86 -2.23,-2.62 -3.33,-6.45 -3.33,-11.53" /><path
         id="path270"
         style="fill:#000000;fill-opacity:1;fill-rule:nonzero;stroke:none"
         d="m 2154.14,1132.23 h -13.71 v 51.83 h 12.73 v -7.34 c 2.19,3.48 4.14,5.78 5.9,6.87 1.72,1.1 3.71,1.64 5.94,1.64 3.12,0 6.13,-0.85 9.02,-2.57 l -4.25,-11.96 c -2.31,1.49 -4.46,2.27 -6.45,2.27 -1.91,0 -3.55,-0.55 -4.88,-1.6 -1.33,-1.06 -2.39,-2.97 -3.13,-5.75 -0.78,-2.77 -1.17,-8.55 -1.17,-17.38 v -16.01" /><path
         id="path272"
         style="fill:#000000;fill-opacity:1;fill-rule:nonzero;stroke:none"
         d="m 2179.92,1203.83 h 13.707 v -12.7422 h -13.707 z m 0,-71.6 v 51.83 h 13.71 v -51.83 h -13.71" /><path
         id="path274"
         style="fill:#000000;fill-opacity:1;fill-rule:nonzero;stroke:none"
         d="m 2254.88,1132.23 h -13.71 v 26.44 c 0,5.63 -0.31,9.22 -0.9,10.9 -0.58,1.64 -1.52,2.89 -2.85,3.83 -1.33,0.9 -2.89,1.37 -4.76,1.37 -2.39,0 -4.5,-0.67 -6.37,-1.96 -1.91,-1.33 -3.2,-3.04 -3.91,-5.19 -0.7,-2.15 -1.05,-6.1 -1.05,-11.92 v -23.47 h -13.71 v 51.83 h 12.73 v -7.61 c 4.53,5.85 10.24,8.78 17.11,8.78 3.01,0 5.78,-0.5 8.28,-1.6 2.5,-1.09 4.42,-2.5 5.71,-4.18 1.28,-1.72 2.18,-3.63 2.65,-5.78 0.55,-2.15 0.78,-5.19 0.78,-9.22 v -32.22" /><path
         id="path276"
         style="fill:#000000;fill-opacity:1;fill-rule:nonzero;stroke:none"
         d="m 2267.54,1128.83 15.66,-1.92 c 0.28,-1.83 0.86,-3.08 1.8,-3.79 1.33,-0.93 3.36,-1.44 6.17,-1.44 3.56,0 6.25,0.55 8.05,1.6 1.21,0.74 2.11,1.88 2.73,3.48 0.43,1.13 0.63,3.24 0.63,6.29 v 7.57 c -4.1,-5.58 -9.26,-8.39 -15.51,-8.39 -6.99,0 -12.5,2.93 -16.56,8.82 -3.21,4.65 -4.81,10.47 -4.81,17.39 0,8.71 2.11,15.35 6.29,19.92 4.18,4.61 9.38,6.87 15.63,6.87 6.4,0 11.68,-2.81 15.86,-8.43 v 7.26 h 12.85 v -46.52 c 0,-6.09 -0.55,-10.66 -1.53,-13.71 -1.01,-3.05 -2.42,-5.39 -4.25,-7.11 -1.84,-1.76 -4.26,-3.09 -7.31,-4.06 -3.04,-0.98 -6.87,-1.49 -11.52,-1.49 -8.83,0 -15.04,1.53 -18.71,4.53 -3.67,3.01 -5.55,6.84 -5.55,11.45 0,0.47 0.04,1.01 0.08,1.68 z m 12.23,30.39 c 0,-5.51 1.09,-9.53 3.2,-12.07 2.15,-2.54 4.76,-3.83 7.89,-3.83 3.36,0 6.17,1.29 8.52,3.91 2.3,2.61 3.43,6.52 3.43,11.68 0,5.35 -1.09,9.33 -3.32,11.95 -2.19,2.58 -5,3.91 -8.4,3.91 -3.28,0 -5.97,-1.29 -8.12,-3.83 -2.11,-2.58 -3.2,-6.49 -3.2,-11.72" /><path
         id="path278"
         style="fill:#000000;fill-opacity:1;fill-rule:nonzero;stroke:none"
         d="m 2325.04,1147.03 13.79,2.07 c 0.58,-2.65 1.76,-4.69 3.55,-6.05 1.8,-1.41 4.3,-2.07 7.5,-2.07 3.56,0 6.25,0.62 8.01,1.95 1.21,0.9 1.84,2.11 1.84,3.63 0,1.06 -0.35,1.92 -0.98,2.62 -0.7,0.62 -2.23,1.25 -4.61,1.8 -11.05,2.46 -18.09,4.68 -21.05,6.68 -4.11,2.81 -6.14,6.72 -6.14,11.68 0,4.49 1.76,8.28 5.32,11.32 3.55,3.05 9.06,4.57 16.52,4.57 7.07,0 12.34,-1.13 15.82,-3.43 3.44,-2.31 5.82,-5.75 7.11,-10.28 l -12.93,-2.38 c -0.55,2.03 -1.6,3.56 -3.17,4.65 -1.52,1.05 -3.74,1.6 -6.6,1.6 -3.63,0 -6.21,-0.51 -7.77,-1.52 -1.02,-0.71 -1.56,-1.64 -1.56,-2.78 0,-0.97 0.47,-1.79 1.36,-2.5 1.25,-0.89 5.51,-2.18 12.82,-3.82 7.3,-1.68 12.42,-3.72 15.31,-6.14 2.85,-2.42 4.3,-5.82 4.3,-10.19 0,-4.77 -2,-8.83 -5.94,-12.27 -3.99,-3.4 -9.84,-5.12 -17.66,-5.12 -7.03,0 -12.61,1.45 -16.76,4.3 -4.1,2.85 -6.79,6.76 -8.08,11.68" /><path
         id="path280"
         style="fill:#000000;fill-opacity:1;fill-rule:nonzero;stroke:none"
         d="m 3037.11,1258.16 h -13.75 V 1310 h 12.77 v -7.38 c 2.15,3.47 4.14,5.78 5.86,6.87 1.76,1.13 3.71,1.68 5.94,1.68 3.12,0 6.13,-0.86 9.02,-2.58 l -4.22,-11.99 c -2.34,1.52 -4.49,2.27 -6.44,2.27 -1.95,0 -3.56,-0.51 -4.88,-1.6 -1.33,-1.06 -2.39,-2.97 -3.17,-5.71 -0.78,-2.77 -1.13,-8.59 -1.13,-17.42 v -15.98" /><path
         id="path282"
         style="fill:#000000;fill-opacity:1;fill-rule:nonzero;stroke:none"
         d="m 3059.69,1284.8 c 0,4.58 1.13,8.99 3.4,13.25 2.22,4.25 5.43,7.5 9.53,9.76 4.1,2.23 8.71,3.36 13.79,3.36 7.85,0 14.25,-2.54 19.29,-7.65 5,-5.08 7.5,-11.53 7.5,-19.3 0,-7.85 -2.5,-14.34 -7.58,-19.49 -5.07,-5.16 -11.44,-7.74 -19.1,-7.74 -4.76,0 -9.29,1.06 -13.63,3.21 -4.3,2.14 -7.58,5.31 -9.8,9.45 -2.27,4.14 -3.4,9.22 -3.4,15.15 z m 14.06,-0.74 c 0,-5.11 1.21,-9.06 3.67,-11.79 2.46,-2.74 5.47,-4.11 9.03,-4.11 3.59,0 6.6,1.37 9.02,4.11 2.42,2.73 3.63,6.68 3.63,11.91 0,5.08 -1.21,8.98 -3.63,11.72 -2.42,2.73 -5.43,4.1 -9.02,4.1 -3.56,0 -6.57,-1.37 -9.03,-4.1 -2.46,-2.74 -3.67,-6.68 -3.67,-11.84" /><path
         id="path284"
         style="fill:#000000;fill-opacity:1;fill-rule:nonzero;stroke:none"
         d="m 3147.73,1310 v -10.94 h -9.37 v -20.9 c 0,-4.21 0.08,-6.68 0.27,-7.38 0.2,-0.7 0.59,-1.29 1.21,-1.76 0.67,-0.43 1.41,-0.66 2.35,-0.66 1.25,0 3.08,0.43 5.51,1.33 l 1.17,-10.67 c -3.21,-1.36 -6.8,-2.03 -10.86,-2.03 -2.46,0 -4.69,0.39 -6.68,1.21 -1.99,0.86 -3.44,1.92 -4.38,3.25 -0.93,1.32 -1.56,3.08 -1.91,5.35 -0.31,1.6 -0.43,4.8 -0.43,9.65 v 22.61 h -6.33 V 1310 h 6.33 v 10.31 l 13.75,8.01 V 1310 h 9.37" /><path
         id="path286"
         style="fill:#000000;fill-opacity:1;fill-rule:nonzero;stroke:none"
         d="m 3167.5,1294.18 -12.42,2.27 c 1.37,5 3.79,8.71 7.22,11.13 3.4,2.38 8.48,3.59 15.24,3.59 6.09,0 10.66,-0.7 13.63,-2.19 3.01,-1.44 5.12,-3.28 6.37,-5.5 1.21,-2.23 1.8,-6.33 1.8,-12.27 l -0.12,-16.01 c 0,-4.58 0.19,-7.93 0.62,-10.08 0.47,-2.19 1.29,-4.5 2.5,-6.96 h -13.59 c -0.35,0.9 -0.78,2.23 -1.33,4.03 -0.19,0.82 -0.39,1.36 -0.47,1.64 -2.34,-2.31 -4.84,-4.03 -7.54,-5.16 -2.65,-1.13 -5.5,-1.68 -8.51,-1.68 -5.35,0 -9.57,1.45 -12.66,4.34 -3.04,2.89 -4.61,6.56 -4.61,10.97 0,2.93 0.71,5.55 2.11,7.86 1.41,2.26 3.36,4.06 5.9,5.27 2.5,1.21 6.13,2.27 10.9,3.2 6.41,1.17 10.86,2.31 13.32,3.36 v 1.37 c 0,2.62 -0.63,4.49 -1.95,5.62 -1.29,1.14 -3.75,1.68 -7.35,1.68 -2.46,0 -4.37,-0.46 -5.74,-1.4 -1.37,-0.98 -2.46,-2.66 -3.32,-5.08 z m 18.36,-11.13 c -1.76,-0.59 -4.53,-1.29 -8.32,-2.11 -3.83,-0.78 -6.33,-1.6 -7.5,-2.39 -1.8,-1.25 -2.66,-2.89 -2.66,-4.84 0,-1.91 0.71,-3.55 2.15,-4.96 1.41,-1.41 3.24,-2.11 5.43,-2.11 2.5,0 4.84,0.82 7.11,2.42 1.64,1.25 2.73,2.78 3.28,4.57 0.35,1.17 0.51,3.4 0.51,6.68 v 2.74" /><path
         id="path288"
         style="fill:#000000;fill-opacity:1;fill-rule:nonzero;stroke:none"
         d="m 3236.64,1310 v -10.94 h -9.37 v -20.9 c 0,-4.21 0.11,-6.68 0.27,-7.38 0.19,-0.7 0.58,-1.29 1.25,-1.76 0.62,-0.43 1.41,-0.66 2.3,-0.66 1.25,0 3.13,0.43 5.51,1.33 l 1.17,-10.67 c -3.16,-1.36 -6.79,-2.03 -10.82,-2.03 -2.5,0 -4.72,0.39 -6.72,1.21 -1.99,0.86 -3.43,1.92 -4.33,3.25 -0.94,1.32 -1.6,3.08 -1.95,5.35 -0.28,1.6 -0.43,4.8 -0.43,9.65 v 22.61 h -6.29 V 1310 h 6.29 v 10.31 l 13.75,8.01 V 1310 h 9.37" /><path
         id="path290"
         style="fill:#000000;fill-opacity:1;fill-rule:nonzero;stroke:none"
         d="m 3246.17,1329.73 h 13.707 v -12.6992 h -13.707 z m 0,-71.57 V 1310 h 13.71 v -51.84 h -13.71" /><path
         id="path292"
         style="fill:#000000;fill-opacity:1;fill-rule:nonzero;stroke:none"
         d="m 3270.78,1284.8 c 0,4.58 1.13,8.99 3.36,13.25 2.27,4.25 5.43,7.5 9.57,9.76 4.1,2.23 8.71,3.36 13.79,3.36 7.85,0 14.26,-2.54 19.3,-7.65 5,-5.08 7.5,-11.53 7.5,-19.3 0,-7.85 -2.54,-14.34 -7.58,-19.49 -5.08,-5.16 -11.45,-7.74 -19.14,-7.74 -4.73,0 -9.26,1.06 -13.6,3.21 -4.29,2.14 -7.57,5.31 -9.84,9.45 -2.23,4.14 -3.36,9.22 -3.36,15.15 z m 14.06,-0.74 c 0,-5.11 1.21,-9.06 3.68,-11.79 2.42,-2.74 5.43,-4.11 9.02,-4.11 3.59,0 6.6,1.37 9.02,4.11 2.42,2.73 3.64,6.68 3.64,11.91 0,5.08 -1.22,8.98 -3.64,11.72 -2.42,2.73 -5.43,4.1 -9.02,4.1 -3.59,0 -6.6,-1.37 -9.02,-4.1 -2.47,-2.74 -3.68,-6.68 -3.68,-11.84" /><path
         id="path294"
         style="fill:#000000;fill-opacity:1;fill-rule:nonzero;stroke:none"
         d="m 3382.23,1258.16 h -13.75 v 26.45 c 0,5.59 -0.28,9.22 -0.86,10.86 -0.59,1.64 -1.57,2.93 -2.85,3.83 -1.33,0.93 -2.93,1.36 -4.77,1.36 -2.38,0 -4.49,-0.62 -6.41,-1.95 -1.87,-1.29 -3.16,-3.01 -3.86,-5.16 -0.71,-2.14 -1.06,-6.13 -1.06,-11.91 v -23.48 h -13.75 V 1310 h 12.78 v -7.62 c 4.53,5.86 10.19,8.79 17.07,8.79 3.04,0 5.82,-0.55 8.32,-1.64 2.5,-1.09 4.37,-2.46 5.7,-4.18 1.25,-1.68 2.15,-3.59 2.66,-5.74 0.5,-2.15 0.78,-5.23 0.78,-9.26 v -32.19" /><path
         id="path296"
         style="fill:#000000;fill-opacity:1;fill-rule:nonzero;stroke:none"
         d="m 3406.37,1294.18 -12.42,2.27 c 1.36,5 3.78,8.71 7.22,11.13 3.4,2.38 8.48,3.59 15.24,3.59 6.09,0 10.66,-0.7 13.67,-2.19 2.97,-1.44 5.08,-3.28 6.33,-5.5 1.21,-2.23 1.79,-6.33 1.79,-12.27 l -0.11,-16.01 c 0,-4.58 0.19,-7.93 0.62,-10.08 0.47,-2.19 1.29,-4.5 2.46,-6.96 h -13.55 c -0.35,0.9 -0.78,2.23 -1.33,4.03 -0.24,0.82 -0.39,1.36 -0.47,1.64 -2.34,-2.31 -4.84,-4.03 -7.54,-5.16 -2.66,-1.13 -5.51,-1.68 -8.51,-1.68 -5.36,0 -9.57,1.45 -12.62,4.34 -3.09,2.89 -4.65,6.56 -4.65,10.97 0,2.93 0.7,5.55 2.11,7.86 1.41,2.26 3.36,4.06 5.9,5.27 2.5,1.21 6.13,2.27 10.9,3.2 6.4,1.17 10.86,2.31 13.32,3.36 v 1.37 c 0,2.62 -0.63,4.49 -1.96,5.62 -1.29,1.14 -3.75,1.68 -7.38,1.68 -2.42,0 -4.34,-0.46 -5.7,-1.4 -1.37,-0.98 -2.46,-2.66 -3.32,-5.08 z m 18.36,-11.13 c -1.76,-0.59 -4.53,-1.29 -8.32,-2.11 -3.83,-0.78 -6.33,-1.6 -7.5,-2.39 -1.76,-1.25 -2.7,-2.89 -2.7,-4.84 0,-1.91 0.74,-3.55 2.19,-4.96 1.4,-1.41 3.24,-2.11 5.47,-2.11 2.46,0 4.8,0.82 7.07,2.42 1.64,1.25 2.73,2.78 3.28,4.57 0.35,1.17 0.51,3.4 0.51,6.68 v 2.74" /><path
         id="path298"
         style="fill:#000000;fill-opacity:1;fill-rule:nonzero;stroke:none"
         d="m 3451.76,1258.17 h 13.707 v 71.5586 h -13.707 z" /><path
         id="path300"
         style="fill:#000000;fill-opacity:1;fill-rule:nonzero;stroke:none"
         d="m 3066.33,1169.69 13.75,2.07 c 0.58,-2.66 1.8,-4.69 3.55,-6.06 1.8,-1.4 4.34,-2.07 7.54,-2.07 3.56,0 6.21,0.63 8.01,1.96 1.21,0.89 1.8,2.11 1.8,3.63 0,1.05 -0.32,1.91 -0.98,2.62 -0.66,0.62 -2.23,1.25 -4.57,1.79 -11.09,2.42 -18.09,4.65 -21.05,6.68 -4.11,2.81 -6.18,6.68 -6.18,11.68 0,4.49 1.8,8.24 5.35,11.33 3.56,3.05 9.03,4.57 16.49,4.57 7.11,0 12.38,-1.13 15.82,-3.44 3.48,-2.3 5.82,-5.74 7.15,-10.27 l -12.93,-2.38 c -0.59,2.03 -1.64,3.55 -3.17,4.65 -1.56,1.05 -3.75,1.6 -6.64,1.6 -3.59,0 -6.17,-0.51 -7.73,-1.53 -1.06,-0.7 -1.56,-1.64 -1.56,-2.77 0,-0.98 0.43,-1.8 1.36,-2.5 1.21,-0.9 5.51,-2.19 12.82,-3.87 7.3,-1.64 12.42,-3.67 15.31,-6.09 2.85,-2.42 4.3,-5.82 4.3,-10.2 0,-4.76 -2,-8.82 -5.98,-12.26 -3.95,-3.44 -9.84,-5.12 -17.62,-5.12 -7.07,0 -12.65,1.45 -16.76,4.3 -4.14,2.85 -6.83,6.76 -8.08,11.68" /><path
         id="path302"
         style="fill:#000000;fill-opacity:1;fill-rule:nonzero;stroke:none"
         d="m 3126.37,1206.72 h 12.81 v -7.62 c 1.64,2.62 3.91,4.73 6.72,6.37 2.85,1.64 5.98,2.42 9.41,2.42 6.06,0 11.14,-2.34 15.35,-7.07 4.18,-4.73 6.29,-11.29 6.29,-19.73 0,-8.67 -2.11,-15.39 -6.33,-20.19 -4.25,-4.81 -9.37,-7.19 -15.39,-7.19 -2.85,0 -5.46,0.55 -7.81,1.68 -2.3,1.17 -4.76,3.13 -7.3,5.9 v -26.13 h -13.75 z m 13.59,-25.04 c 0,-5.82 1.13,-10.12 3.48,-12.89 2.3,-2.81 5.11,-4.18 8.44,-4.18 3.16,0 5.82,1.25 7.92,3.83 2.15,2.54 3.21,6.72 3.21,12.58 0,5.43 -1.1,9.45 -3.28,12.1 -2.19,2.62 -4.89,3.95 -8.13,3.95 -3.32,0 -6.13,-1.29 -8.32,-3.91 -2.23,-2.57 -3.32,-6.4 -3.32,-11.48" /><path
         id="path304"
         style="fill:#000000;fill-opacity:1;fill-rule:nonzero;stroke:none"
         d="m 3200.98,1154.88 h -13.71 v 51.84 H 3200 v -7.34 c 2.19,3.47 4.14,5.78 5.9,6.87 1.72,1.09 3.71,1.64 5.94,1.64 3.12,0 6.13,-0.86 9.02,-2.58 l -4.26,-11.95 c -2.3,1.48 -4.45,2.23 -6.44,2.23 -1.92,0 -3.56,-0.51 -4.89,-1.57 -1.32,-1.05 -2.38,-2.97 -3.12,-5.74 -0.78,-2.77 -1.17,-8.55 -1.17,-17.38 v -16.02" /><path
         id="path306"
         style="fill:#000000;fill-opacity:1;fill-rule:nonzero;stroke:none"
         d="m 3226.76,1226.45 h 13.75 v -12.6992 h -13.75 z m 0,-71.57 v 51.84 h 13.75 v -51.84 h -13.75" /><path
         id="path308"
         style="fill:#000000;fill-opacity:1;fill-rule:nonzero;stroke:none"
         d="m 3301.72,1154.88 h -13.71 v 26.45 c 0,5.62 -0.31,9.22 -0.9,10.9 -0.59,1.64 -1.52,2.89 -2.85,3.82 -1.33,0.9 -2.89,1.37 -4.77,1.37 -2.38,0 -4.49,-0.66 -6.4,-1.95 -1.88,-1.33 -3.17,-3.05 -3.87,-5.2 -0.7,-2.15 -1.06,-6.13 -1.06,-11.91 v -23.48 h -13.71 v 51.84 h 12.74 v -7.62 c 4.53,5.86 10.23,8.79 17.11,8.79 3,0 5.78,-0.55 8.28,-1.6 2.5,-1.09 4.41,-2.5 5.7,-4.18 1.29,-1.72 2.19,-3.63 2.7,-5.78 0.5,-2.15 0.74,-5.24 0.74,-9.22 v -32.23" /><path
         id="path310"
         style="fill:#000000;fill-opacity:1;fill-rule:nonzero;stroke:none"
         d="m 3314.38,1151.45 15.66,-1.92 c 0.27,-1.8 0.86,-3.05 1.8,-3.75 1.32,-0.98 3.36,-1.44 6.17,-1.44 3.55,0 6.25,0.54 8.04,1.6 1.22,0.7 2.11,1.87 2.74,3.47 0.43,1.14 0.62,3.25 0.62,6.29 v 7.58 c -4.1,-5.58 -9.25,-8.4 -15.5,-8.4 -7,0 -12.5,2.93 -16.57,8.83 -3.2,4.65 -4.76,10.43 -4.76,17.38 0,8.71 2.07,15.36 6.25,19.93 4.18,4.6 9.37,6.87 15.58,6.87 6.45,0 11.72,-2.81 15.9,-8.44 v 7.27 h 12.81 v -46.52 c 0,-6.14 -0.46,-10.71 -1.48,-13.72 -1.02,-3.04 -2.42,-5.43 -4.26,-7.14 -1.83,-1.72 -4.26,-3.05 -7.3,-4.03 -3.05,-0.97 -6.88,-1.48 -11.56,-1.48 -8.79,0 -15,1.52 -18.68,4.53 -3.71,3.01 -5.54,6.84 -5.54,11.44 0,0.43 0.04,1.02 0.08,1.65 z m 12.22,30.43 c 0,-5.51 1.1,-9.54 3.2,-12.08 2.15,-2.57 4.77,-3.82 7.9,-3.82 3.35,0 6.21,1.29 8.51,3.9 2.31,2.62 3.48,6.53 3.48,11.64 0,5.39 -1.14,9.38 -3.32,12 -2.23,2.57 -5.04,3.9 -8.4,3.9 -3.32,0 -6.02,-1.29 -8.17,-3.87 -2.1,-2.53 -3.2,-6.44 -3.2,-11.67" /><path
         id="path312"
         style="fill:#000000;fill-opacity:1;fill-rule:nonzero;stroke:none"
         d="m 3371.88,1169.69 13.78,2.07 c 0.59,-2.66 1.76,-4.69 3.56,-6.06 1.8,-1.4 4.3,-2.07 7.54,-2.07 3.51,0 6.21,0.63 7.97,1.96 1.21,0.89 1.83,2.11 1.83,3.63 0,1.05 -0.35,1.91 -0.97,2.62 -0.71,0.62 -2.23,1.25 -4.61,1.79 -11.06,2.42 -18.09,4.65 -21.06,6.68 -4.06,2.81 -6.13,6.68 -6.13,11.68 0,4.49 1.76,8.24 5.31,11.33 3.56,3.05 9.06,4.57 16.52,4.57 7.08,0 12.35,-1.13 15.83,-3.44 3.43,-2.3 5.82,-5.74 7.1,-10.27 l -12.93,-2.38 c -0.54,2.03 -1.6,3.55 -3.16,4.65 -1.52,1.05 -3.75,1.6 -6.6,1.6 -3.63,0 -6.21,-0.51 -7.77,-1.53 -1.06,-0.7 -1.57,-1.64 -1.57,-2.77 0,-0.98 0.47,-1.8 1.37,-2.5 1.25,-0.9 5.51,-2.19 12.81,-3.87 7.31,-1.64 12.42,-3.67 15.32,-6.09 2.89,-2.42 4.29,-5.82 4.29,-10.2 0,-4.76 -1.95,-8.82 -5.93,-12.26 -3.99,-3.44 -9.85,-5.12 -17.62,-5.12 -7.07,0 -12.7,1.45 -16.8,4.3 -4.1,2.85 -6.8,6.76 -8.08,11.68" /><path
         id="path314"
         style="fill:#000000;fill-opacity:1;fill-rule:evenodd;stroke:none"
         d="m 2458.55,1331.45 74.5,16.99 -31.1,-69.81 c 2.35,24.07 -19.33,50.47 -43.4,52.82" /><path
         id="path316"
         style="fill:none;stroke:#000000;stroke-width:10;stroke-linecap:round;stroke-linejoin:round;stroke-miterlimit:1.41400003;stroke-dasharray:none;stroke-opacity:1"
         d="m 2376.48,1219.77 c 0,0 67.97,55.85 114.34,93.94" /><path
         id="path318"
         style="fill:#000000;fill-opacity:1;fill-rule:evenodd;stroke:none"
         d="m 2516.91,1091.52 14.14,-75.07 -68.55,33.71 c 23.95,-3.28 51.13,17.42 54.41,41.36" /><path
         id="path320"
         style="fill:none;stroke:#000000;stroke-width:10;stroke-linecap:round;stroke-linejoin:round;stroke-miterlimit:1.41400003;stroke-dasharray:none;stroke-opacity:1"
         d="m 2376.48,1219.77 c 0,0 76.1,-100.08 121.49,-159.81" /><path
         id="path376"
         style="fill:#16cb37;fill-opacity:1;fill-rule:evenodd;stroke:none"
         d="m 2608.28,1526.91 -30.58,59.69 -29.38,-60.31 59.96,0.62" /><path
         id="path378"
         style="fill:#16cb37;fill-opacity:1;fill-rule:evenodd;stroke:none"
         d="m 2608.87,1343.48 -31.17,-59.38 -28.83,60.59 60,-1.21" /><path
         id="path380"
         style="fill:none;stroke:#16cb37;stroke-width:20;stroke-linecap:round;stroke-linejoin:round;stroke-miterlimit:1.41400003;stroke-dasharray:none;stroke-opacity:1"
         d="m 2578.16,1538.59 c 0.9,-93.16 0.98,-160.04 0.47,-206.48" /><path
         id="path410"
         style="fill:#000000;fill-opacity:1;fill-rule:evenodd;stroke:none"
         d="m 2875.35,1166.02 -73.01,22.5 61.8,44.92 c -14.02,-19.65 -8.44,-53.36 11.21,-67.42" /><path
         id="path412"
         style="fill:none;stroke:#000000;stroke-width:10;stroke-linecap:round;stroke-linejoin:round;stroke-miterlimit:1.41400003;stroke-dasharray:none;stroke-opacity:1"
         d="m 2990.08,1219.77 c 0,0 -78.32,-13.05 -133.79,-22.27" /><path
         id="path414"
         style="fill:#000000;fill-opacity:1;fill-rule:evenodd;stroke:none"
         d="m 2828.67,715.781 -56.79,-51.051 -6.8,76.09 c 9.65,-22.148 41.44,-34.648 63.59,-25.039" /><path
         id="path416"
         style="fill:none;stroke:#000000;stroke-width:10;stroke-linecap:round;stroke-linejoin:round;stroke-miterlimit:1.41400003;stroke-dasharray:none;stroke-opacity:1"
         d="m 2990.08,1219.77 c 0,0 -144.3,-367.04 -198.2,-504.18" /><path
         id="path418"
         style="fill:#000000;fill-opacity:1;fill-rule:evenodd;stroke:none"
         d="m 2772.15,1576.02 -0.27,76.4 61.28,-45.62 c -22.96,7.58 -53.47,-7.82 -61.01,-30.78" /><path
         id="path420"
         style="fill:none;stroke:#000000;stroke-width:10;stroke-linecap:round;stroke-linejoin:round;stroke-miterlimit:1.41400003;stroke-dasharray:none;stroke-opacity:1"
         d="m 2990.08,1219.77 c 0,0 -136.53,270.7 -193.6,383.86" /><path
         id="path422"
         style="fill:#000000;fill-opacity:1;fill-rule:evenodd;stroke:none"
         d="m 1843.9102,283.16 34.4882,68.168 33.8316,-68.519 c -16.9995,17.191 -51.1792,17.351 -68.3198,0.351" /><path
         id="path424"
         style="fill:none;stroke:#000000;stroke-width:10;stroke-linecap:round;stroke-linejoin:round;stroke-miterlimit:1.41400003;stroke-dasharray:none;stroke-opacity:1"
         d="m 1876.6406,-1.5590038 c 0,0 1.0196,199.1370038 1.4805,298.2390038" /><path
         id="path426"
         style="fill:#000000;fill-opacity:1;fill-rule:evenodd;stroke:none"
         d="m 2164.77,32.620996 68.32,-34.1799998 -68.32,-34.1790002 c 17.07,17.109 17.07,51.289 0,68.359" /><path
         id="path428"
         style="fill:none;stroke:#000000;stroke-width:10;stroke-linecap:round;stroke-linejoin:round;stroke-miterlimit:1.41400003;stroke-dasharray:none;stroke-opacity:1"
         d="m 1876.6406,-1.5590038 c 0,0 201.8794,0 301.8004,0" /><path
         id="path430"
         style="fill:#fffdfd;fill-opacity:1;fill-rule:evenodd;stroke:none"
         d="m 1876.6406,41.987996 c 25.4684,0 46.1294,-19.527 46.1294,-43.5469998 0,-24.0310002 -20.661,-43.5620002 -46.1294,-43.5620002 -25.4687,0 -46.1289,19.531 -46.1289,43.5620002 0,24.0199998 20.6602,43.5469998 46.1289,43.5469998" /><path
         id="path432"
         style="fill:none;stroke:#000000;stroke-width:10;stroke-linecap:round;stroke-linejoin:round;stroke-miterlimit:1.41400003;stroke-dasharray:none;stroke-opacity:1"
         d="m 1876.6406,41.987996 c 25.4684,0 46.1294,-19.527 46.1294,-43.5469998 0,-24.0310002 -20.661,-43.5620002 -46.1294,-43.5620002 -25.4687,0 -46.1289,19.531 -46.1289,43.5620002 0,24.0199998 20.6602,43.5469998 46.1289,43.5469998 z" /><path
         id="path434"
         style="fill:#000000;fill-opacity:1;fill-rule:evenodd;stroke:none"
         d="m 1876.6406,16.718996 c 10.0782,0 18.2383,-8.1989998 18.2383,-18.2779998 0,-10.0820002 -8.1601,-18.2420002 -18.2383,-18.2420002 -10.082,0 -18.2422,8.16 -18.2422,18.2420002 0,10.079 8.1602,18.2779998 18.2422,18.2779998" /><path
         id="path436"
         style="fill:none;stroke:#000000;stroke-width:10;stroke-linecap:round;stroke-linejoin:round;stroke-miterlimit:1.41400003;stroke-dasharray:none;stroke-opacity:1"
         d="m 1876.6406,16.718996 c 10.0782,0 18.2383,-8.1989998 18.2383,-18.2779998 0,-10.0820002 -8.1601,-18.2420002 -18.2383,-18.2420002 -10.082,0 -18.2422,8.16 -18.2422,18.2420002 0,10.079 8.1602,18.2779998 18.2422,18.2779998 z" /><path
         id="path440"
         style="fill:#949494;fill-opacity:1;fill-rule:evenodd;stroke:none"
         d="m 2963.16,2197.38 c 0,37.82 -30.66,68.48 -68.47,68.48 h -501.17 c -37.78,0 -68.48,-30.66 -68.48,-68.48 v -136.95 c 0,-37.81 30.7,-68.48 68.48,-68.48 h 501.17 c 37.81,0 68.47,30.67 68.47,68.48 v 136.95" /><path
         id="path442"
         style="fill:none;stroke:#000000;stroke-width:10;stroke-linecap:round;stroke-linejoin:round;stroke-miterlimit:1.41400003;stroke-dasharray:none;stroke-opacity:1"
         d="m 2963.16,2197.38 c 0,37.82 -30.66,68.48 -68.47,68.48 h -501.17 c -37.78,0 -68.48,-30.66 -68.48,-68.48 v -136.95 c 0,-37.81 30.7,-68.48 68.48,-68.48 h 501.17 c 37.81,0 68.47,30.67 68.47,68.48 z" /><path
         id="path444"
         style="fill:#000000;fill-opacity:1;fill-rule:nonzero;stroke:none"
         d="m 2398.12,2223.48 h 14.46 v -38.75 c 0,-6.18 0.19,-10.16 0.54,-11.96 0.59,-2.93 2.08,-5.31 4.42,-7.07 2.3,-1.75 5.51,-2.65 9.53,-2.65 4.1,0 7.19,0.82 9.3,2.5 2.07,1.68 3.32,3.75 3.75,6.21 0.43,2.42 0.62,6.48 0.62,12.15 v 39.57 h 14.46 v -37.58 c 0,-8.6 -0.4,-14.69 -1.18,-18.2 -0.78,-3.56 -2.22,-6.57 -4.29,-8.99 -2.11,-2.46 -4.93,-4.41 -8.44,-5.86 -3.52,-1.44 -8.13,-2.15 -13.75,-2.15 -6.88,0 -12.03,0.78 -15.59,2.35 -3.51,1.6 -6.33,3.63 -8.36,6.17 -2.07,2.5 -3.39,5.16 -4.06,7.93 -0.94,4.1 -1.41,10.15 -1.41,18.16 v 38.17" /><path
         id="path446"
         style="fill:#000000;fill-opacity:1;fill-rule:nonzero;stroke:none"
         d="m 2517.5,2151.91 h -13.71 v 26.49 c 0,5.58 -0.31,9.22 -0.9,10.86 -0.59,1.64 -1.52,2.89 -2.85,3.83 -1.33,0.89 -2.89,1.36 -4.77,1.36 -2.34,0 -4.49,-0.66 -6.36,-1.95 -1.92,-1.33 -3.21,-3.05 -3.91,-5.2 -0.7,-2.14 -1.05,-6.13 -1.05,-11.91 v -23.48 h -13.72 v 51.88 h 12.78 v -7.66 c 4.49,5.86 10.19,8.79 17.07,8.79 3.01,0 5.78,-0.54 8.32,-1.64 2.5,-1.05 4.37,-2.46 5.66,-4.14 1.29,-1.72 2.19,-3.63 2.7,-5.78 0.51,-2.15 0.74,-5.24 0.74,-9.22 v -32.23" /><path
         id="path448"
         style="fill:#000000;fill-opacity:1;fill-rule:nonzero;stroke:none"
         d="m 2578.98,2151.91 h -12.73 v 7.62 c -2.15,-2.97 -4.65,-5.15 -7.5,-6.64 -2.89,-1.44 -5.78,-2.15 -8.71,-2.15 -5.98,0 -11.06,2.38 -15.31,7.19 -4.26,4.8 -6.37,11.52 -6.37,20.12 0,8.79 2.07,15.47 6.17,20.04 4.14,4.57 9.38,6.83 15.7,6.83 5.79,0 10.79,-2.38 15.04,-7.22 v 25.78 h 13.71 z m -36.64,27.04 c 0,-5.51 0.78,-9.54 2.31,-12 2.23,-3.59 5.31,-5.39 9.3,-5.39 3.16,0 5.82,1.37 8.04,4.06 2.23,2.66 3.32,6.68 3.32,12.04 0,5.93 -1.05,10.23 -3.2,12.85 -2.19,2.61 -4.92,3.94 -8.28,3.94 -3.24,0 -5.98,-1.29 -8.17,-3.9 -2.18,-2.58 -3.32,-6.45 -3.32,-11.6" /><path
         id="path450"
         style="fill:#000000;fill-opacity:1;fill-rule:nonzero;stroke:none"
         d="m 2622.54,2168.44 13.67,-2.31 c -1.76,-5.04 -4.53,-8.83 -8.32,-11.44 -3.79,-2.66 -8.55,-3.95 -14.26,-3.95 -8.98,0 -15.66,2.93 -20,8.83 -3.43,4.73 -5.11,10.66 -5.11,17.89 0,8.59 2.22,15.31 6.71,20.2 4.5,4.84 10.2,7.26 17.04,7.26 7.73,0 13.82,-2.54 18.28,-7.62 4.45,-5.11 6.6,-12.89 6.4,-23.43 h -34.37 c 0.08,-4.07 1.21,-7.23 3.32,-9.49 2.11,-2.27 4.72,-3.4 7.89,-3.4 2.15,0 3.94,0.58 5.43,1.75 1.44,1.18 2.58,3.09 3.32,5.71 z m 0.78,13.83 c -0.12,3.98 -1.13,6.99 -3.09,9.06 -1.95,2.07 -4.33,3.12 -7.11,3.12 -3,0 -5.46,-1.09 -7.42,-3.28 -1.95,-2.19 -2.93,-5.15 -2.89,-8.9 h 20.51" /><path
         id="path452"
         style="fill:#000000;fill-opacity:1;fill-rule:nonzero;stroke:none"
         d="m 2661.25,2151.91 h -13.71 v 51.88 h 12.73 v -7.38 c 2.19,3.47 4.14,5.78 5.9,6.87 1.72,1.1 3.71,1.64 5.94,1.64 3.12,0 6.13,-0.86 9.02,-2.58 l -4.25,-11.95 c -2.31,1.49 -4.46,2.23 -6.45,2.23 -1.91,0 -3.55,-0.51 -4.88,-1.57 -1.33,-1.05 -2.39,-2.96 -3.13,-5.74 -0.78,-2.77 -1.17,-8.55 -1.17,-17.38 v -16.02" /><path
         id="path454"
         style="fill:#000000;fill-opacity:1;fill-rule:nonzero;stroke:none"
         d="m 2687.03,2151.92 h 13.707 v 71.5586 h -13.707 z" /><path
         id="path456"
         style="fill:#000000;fill-opacity:1;fill-rule:nonzero;stroke:none"
         d="m 2708.32,2203.79 h 14.61 l 12.38,-36.84 12.11,36.84 h 14.22 l -18.28,-49.92 -3.28,-9.03 c -1.21,-3.04 -2.35,-5.35 -3.48,-6.95 -1.05,-1.6 -2.3,-2.89 -3.75,-3.87 -1.4,-1.01 -3.12,-1.75 -5.19,-2.3 -2.07,-0.59 -4.42,-0.86 -7.04,-0.86 -2.61,0 -5.23,0.27 -7.77,0.86 l -1.21,10.7 c 2.15,-0.39 4.1,-0.62 5.82,-0.62 3.2,0 5.55,0.93 7.07,2.81 1.52,1.87 2.7,4.26 3.52,7.15 l -19.73,52.03" /><path
         id="path458"
         style="fill:#000000;fill-opacity:1;fill-rule:nonzero;stroke:none"
         d="m 2770.43,2223.48 h 13.7109 v -12.6992 H 2770.43 Z m 0,-71.57 v 51.88 h 13.71 v -51.88 h -13.71" /><path
         id="path460"
         style="fill:#000000;fill-opacity:1;fill-rule:nonzero;stroke:none"
         d="m 2845.39,2151.91 h -13.71 v 26.49 c 0,5.58 -0.31,9.22 -0.9,10.86 -0.58,1.64 -1.52,2.89 -2.85,3.83 -1.33,0.89 -2.89,1.36 -4.77,1.36 -2.38,0 -4.49,-0.66 -6.36,-1.95 -1.92,-1.33 -3.21,-3.05 -3.91,-5.2 -0.7,-2.14 -1.05,-6.13 -1.05,-11.91 v -23.48 h -13.72 v 51.88 h 12.74 v -7.66 c 4.53,5.86 10.23,8.79 17.11,8.79 3.01,0 5.78,-0.54 8.28,-1.64 2.5,-1.05 4.41,-2.46 5.7,-4.14 1.29,-1.72 2.19,-3.63 2.7,-5.78 0.51,-2.15 0.74,-5.24 0.74,-9.22 v -32.23" /><path
         id="path462"
         style="fill:#000000;fill-opacity:1;fill-rule:nonzero;stroke:none"
         d="m 2858.05,2148.48 15.66,-1.88 c 0.27,-1.83 0.86,-3.08 1.8,-3.79 1.33,-0.97 3.36,-1.44 6.17,-1.44 3.55,0 6.25,0.54 8.05,1.6 1.21,0.7 2.11,1.87 2.73,3.48 0.43,1.13 0.63,3.24 0.63,6.28 v 7.58 c -4.11,-5.58 -9.26,-8.4 -15.51,-8.4 -6.99,0 -12.5,2.93 -16.56,8.83 -3.21,4.65 -4.81,10.47 -4.81,17.38 0,8.72 2.11,15.36 6.29,19.93 4.18,4.61 9.38,6.87 15.59,6.87 6.44,0 11.71,-2.81 15.89,-8.44 v 7.31 h 12.86 v -46.56 c 0,-6.14 -0.51,-10.71 -1.53,-13.71 -1.01,-3.01 -2.42,-5.4 -4.26,-7.15 -1.83,-1.72 -4.25,-3.05 -7.3,-4.03 -3.05,-0.97 -6.87,-1.48 -11.52,-1.48 -8.79,0 -15.04,1.52 -18.71,4.53 -3.68,3.01 -5.51,6.84 -5.51,11.45 0,0.46 0,1.01 0.04,1.64 z m 12.22,30.43 c 0,-5.51 1.1,-9.53 3.21,-12.07 2.14,-2.58 4.76,-3.83 7.89,-3.83 3.36,0 6.21,1.29 8.51,3.9 2.31,2.62 3.48,6.53 3.48,11.64 0,5.4 -1.13,9.38 -3.32,12 -2.23,2.57 -5.04,3.9 -8.44,3.9 -3.28,0 -5.98,-1.29 -8.12,-3.83 -2.11,-2.57 -3.21,-6.48 -3.21,-11.71" /><path
         id="path464"
         style="fill:#000000;fill-opacity:1;fill-rule:nonzero;stroke:none"
         d="m 2514.73,2048.63 v 71.6 h 21.64 l 12.97,-48.82 12.85,48.82 h 21.68 v -71.6 h -13.44 V 2105 l -14.22,-56.37 h -13.91 l -14.14,56.37 v -56.37 h -13.43" /><path
         id="path466"
         style="fill:#000000;fill-opacity:1;fill-rule:nonzero;stroke:none"
         d="m 2594.96,2075.31 c 0,4.53 1.09,8.95 3.36,13.21 2.27,4.29 5.43,7.53 9.53,9.76 4.14,2.27 8.71,3.4 13.79,3.4 7.85,0 14.3,-2.58 19.3,-7.66 5.04,-5.07 7.54,-11.52 7.54,-19.29 0,-7.85 -2.54,-14.38 -7.62,-19.53 -5.04,-5.16 -11.41,-7.74 -19.1,-7.74 -4.77,0 -9.3,1.09 -13.6,3.24 -4.33,2.15 -7.57,5.28 -9.84,9.46 -2.27,4.14 -3.36,9.18 -3.36,15.15 z m 14.06,-0.74 c 0,-5.16 1.21,-9.06 3.64,-11.84 2.46,-2.69 5.46,-4.1 9.06,-4.1 3.55,0 6.56,1.41 8.98,4.1 2.42,2.78 3.64,6.72 3.64,11.96 0,5.04 -1.22,8.94 -3.64,11.68 -2.42,2.73 -5.43,4.14 -8.98,4.14 -3.6,0 -6.6,-1.41 -9.06,-4.14 -2.43,-2.74 -3.64,-6.64 -3.64,-11.8" /><path
         id="path468"
         style="fill:#000000;fill-opacity:1;fill-rule:nonzero;stroke:none"
         d="m 2706.76,2048.63 h -12.74 v 7.62 c -2.11,-2.97 -4.61,-5.16 -7.5,-6.6 -2.89,-1.45 -5.78,-2.19 -8.71,-2.19 -5.97,0 -11.05,2.42 -15.31,7.23 -4.26,4.76 -6.37,11.48 -6.37,20.08 0,8.78 2.07,15.46 6.21,20.03 4.14,4.58 9.34,6.88 15.67,6.88 5.78,0 10.82,-2.42 15.04,-7.23 v 25.78 h 13.71 z m -36.6,27.07 c 0,-5.54 0.74,-9.57 2.26,-12.03 2.23,-3.55 5.31,-5.35 9.3,-5.35 3.16,0 5.86,1.33 8.05,4.02 2.22,2.7 3.32,6.68 3.32,12.04 0,5.93 -1.06,10.23 -3.21,12.85 -2.15,2.61 -4.92,3.94 -8.28,3.94 -3.24,0 -5.98,-1.29 -8.16,-3.87 -2.19,-2.61 -3.28,-6.48 -3.28,-11.6" /><path
         id="path470"
         style="fill:#000000;fill-opacity:1;fill-rule:nonzero;stroke:none"
         d="m 2750.31,2065.16 13.67,-2.31 c -1.75,-5 -4.53,-8.83 -8.32,-11.44 -3.78,-2.62 -8.51,-3.95 -14.21,-3.95 -9.03,0 -15.71,2.93 -20.04,8.87 -3.4,4.69 -5.12,10.66 -5.12,17.85 0,8.59 2.23,15.31 6.76,20.2 4.49,4.84 10.15,7.3 17.03,7.3 7.69,0 13.79,-2.58 18.24,-7.66 4.45,-5.07 6.6,-12.89 6.41,-23.4 h -34.38 c 0.12,-4.1 1.21,-7.22 3.32,-9.49 2.11,-2.26 4.77,-3.4 7.89,-3.4 2.15,0 3.99,0.59 5.43,1.76 1.49,1.17 2.58,3.05 3.32,5.67 z m 0.78,13.86 c -0.07,3.95 -1.13,7 -3.04,9.07 -2,2.07 -4.34,3.08 -7.15,3.08 -3.01,0 -5.47,-1.09 -7.42,-3.28 -1.96,-2.19 -2.93,-5.16 -2.89,-8.87 h 20.5" /><path
         id="path472"
         style="fill:#000000;fill-opacity:1;fill-rule:nonzero;stroke:none"
         d="m 2775.9,2048.63 h 13.75 v 71.6016 h -13.75 z" /></g></g></svg>